<?xml version="1.0" encoding="UTF-8"?>
<svg id="Layer_1" data-name="Layer 1" xmlns="http://www.w3.org/2000/svg" viewBox="0 0 425.2 425.2">
  <defs>
    <style>
      .cls-1 {
        stroke-width: 0px;
      }
    </style>
  </defs>
  <polygon class="cls-1" points="208.87 156.22 183.43 156.22 135.49 268.65 167.46 268.65 196.15 191.82 212.71 236.16 188.85 223.13 224.84 268.65 256.81 268.65 208.87 156.22"/>
  <path class="cls-1" d="M372.72,268.91c-6.71,0-12.72,0-18.73,0-3.8,0-7.6-.11-11.38.05-1.9.08-2.95-.59-3.92-2.16-6.24-10.12-12.6-20.16-18.82-30.29-.98-1.6-2.02-2.16-3.89-2.14-8.59.11-17.18.05-26.03.05v34.26h-29.5v-110.33c1.12,0,2.12,0,3.12,0,21.23,0,42.47.05,63.7,0,7.38-.02,14.48,1.12,21.16,4.34,14.9,7.17,23.05,22.75,20.96,39.23-1.73,13.59-9.12,22.88-21.19,29.31,8.04,12.36,16.1,24.74,24.51,37.67ZM290.06,210.21c12.65,0,25.13.25,37.59-.12,5.57-.17,10.37-2.63,12.07-8.7,2.7-9.64-3.1-17.35-13.18-17.42-11.48-.09-22.96-.02-34.44,0-.68,0-1.35.16-2.04.25v25.99Z"/>
  <path class="cls-1" d="M82.6,183.45v21.62h60.19v25.19h-60.2v38.07h-30.11v-110.2h100.21v25.31h-70.09Z"/>
</svg>